<svg xmlns="http://www.w3.org/2000/svg" xml:space="preserve" width="23" height="27" style="enable-background:new 0 0 23 27"><path d="M22.8 22.2c-.5.7-1 1.3-1.6 1.8-.7.6-1.4 1.1-2.2 1.5-.8.4-1.7.8-2.6 1-1 .2-2 .4-3 .4-1.8 0-3.6-.3-5.2-1-3.2-1.3-5.7-3.8-7-7-.7-1.7-1-3.5-1-5.3 0-1.8.3-3.6 1-5.3 1.3-3.2 3.8-5.7 7-7 1.7-.7 3.4-1 5.2-1 1.6 0 3.2.3 4.7.9 1.6.6 3 1.7 4 3.1L19.8 6c-.3-.5-.7-.9-1.1-1.2-.5-.4-1-.8-1.6-1.1-.6-.3-1.2-.6-1.9-.8-.7-.2-1.3-.3-2-.3-1.5 0-3 .3-4.4.9-1 .5-2.1 1.3-3 2.3C4.9 6.9 4.2 8 3.7 9.3c-1 2.7-1 5.6 0 8.3.5 1.3 1.2 2.5 2.1 3.5.9 1 2 1.8 3.3 2.4 1.4.6 2.9.9 4.4.9.7 0 1.3-.1 2-.2s1.3-.3 1.9-.6c.6-.3 1.3-.7 1.8-1.2.6-.5 1.1-1.2 1.6-1.8l2 1.6z" style="fill:#595757"/></svg>