<svg xmlns="http://www.w3.org/2000/svg" xml:space="preserve" width="22" height="27" style="enable-background:new 0 0 22 27"><path d="M20.6 7.9c-.7-1.5-1.8-2.9-3.1-4-1.3-1-2.8-1.8-4.4-2.4-1.5-.4-3.1-.7-4.7-.7H.1v25.4h2.6v-23h5c1.7 0 3.5.3 5 .9 1.3.4 2.6 1.2 3.6 2.3.9.9 1.6 2 2.1 3.3.9 2.5.9 5.1 0 7.7-.4 1.2-1.1 2.4-2 3.3-1 1-2.3 1.8-3.6 2.4-1.6.6-3.3.9-5 .9H5.6c-.2-.1-.3-.1-.5-.1-.7 0-1.2.6-1.2 1.2 0 .7.6 1.2 1.2 1.2.2 0 .3 0 .5-.1h3.1c1.6 0 3.2-.3 4.7-.8s3.1-1.3 4.3-2.4c1.3-1.1 2.4-2.5 3.1-4 .8-1.7 1.2-3.7 1.2-5.5-.2-1.9-.6-3.8-1.4-5.6z" style="fill:#595757"/></svg>