<svg xmlns="http://www.w3.org/2000/svg" width="20" height="20"><path fill="#595757" d="M5.848 20A5.854 5.854 0 0 1 0 14.152V5.846A5.853 5.853 0 0 1 5.848 0h8.305A5.853 5.853 0 0 1 20 5.846v8.305A5.853 5.853 0 0 1 14.154 20ZM1.865 5.846v8.305a3.986 3.986 0 0 0 3.983 3.983h8.305a3.986 3.986 0 0 0 3.982-3.983V5.846a3.985 3.985 0 0 0-3.982-3.982H5.848a3.986 3.986 0 0 0-3.983 3.982ZM4.831 10A5.17 5.17 0 1 1 10 15.171 5.176 5.176 0 0 1 4.831 10ZM6.7 10A3.3 3.3 0 1 0 10 6.7 3.307 3.307 0 0 0 6.7 10Zm8.363-4.12a1.246 1.246 0 1 1 .285.033 1.248 1.248 0 0 1-.289-.032Z"/></svg>