<svg xmlns="http://www.w3.org/2000/svg" width="153.984" height="19.067"><g data-name="グループ 8035"><path d="M48.02.185h.511v4.263h-.542a4.146 4.146 0 0 0-1.275-2.756A3.929 3.929 0 0 0 43.964.7a3.585 3.585 0 0 0-2.373.743 2.435 2.435 0 0 0-.9 1.984 3.306 3.306 0 0 0 .742 2.089 12.934 12.934 0 0 0 3.224 2.432 14.333 14.333 0 0 1 3.873 3 4.7 4.7 0 0 1 .994 2.952 5.17 5.17 0 0 1-5.171 5.172 9.828 9.828 0 0 1-3.15-.682 4.045 4.045 0 0 0-1.008-.275c-.3 0-.532.232-.694.694h-.541V13.9h.541a4.352 4.352 0 0 0 4.376 4.475 3.851 3.851 0 0 0 2.65-.882 3 3 0 0 0 1-2.36 3.325 3.325 0 0 0-.82-2.1 14.552 14.552 0 0 0-3.426-2.6 15.428 15.428 0 0 1-2.838-2.073 4.959 4.959 0 0 1-1.053-1.666 5.657 5.657 0 0 1-.338-1.994 4.475 4.475 0 0 1 1.37-3.4A4.968 4.968 0 0 1 43.993 0a8.22 8.22 0 0 1 2.631.482 3.721 3.721 0 0 0 .932.218.362.362 0 0 0 .294-.1 1.231 1.231 0 0 0 .17-.417" data-name="パス 3135"/><path d="M65.212 3.036 61.12 9.482v5.725a4.284 4.284 0 0 0 .428 2.276 1.8 1.8 0 0 0 1.572.614v.524h-6.628v-.524a2.04 2.04 0 0 0 1.788-.653 4.19 4.19 0 0 0 .442-2.236V9.482l-3.874-6.028a8.3 8.3 0 0 0-1.563-1.965 2.88 2.88 0 0 0-1.672-.513V.448h7.11v.528c-1.252 0-1.877.286-1.877.85a1.934 1.934 0 0 0 .372.965l3.6 5.5 2.874-4.559a3.486 3.486 0 0 0 .639-1.75c0-.667-.4-1.006-1.206-1.006V.448h4.989v.528a3.043 3.043 0 0 0-1.557.442 5.884 5.884 0 0 0-1.34 1.618" data-name="パス 3136"/><path d="M84.595 14.806V3.869a4.2 4.2 0 0 0-.425-2.22 1.8 1.8 0 0 0-1.51-.673V.448h6.413v.528a1.83 1.83 0 0 0-1.61.635 4.117 4.117 0 0 0-.45 2.266v11.335a4.123 4.123 0 0 0 .444 2.238 1.815 1.815 0 0 0 1.616.646v.524h-4.478v-2.542a7.739 7.739 0 0 1-6.055 2.99 5.98 5.98 0 0 1-4.531-1.717 6.283 6.283 0 0 1-1.649-4.542v-8.94a4.3 4.3 0 0 0-.425-2.257 1.824 1.824 0 0 0-1.63-.635V.448h6.563v.528a1.9 1.9 0 0 0-1.655.621 4.165 4.165 0 0 0-.431 2.249v9.2a4.857 4.857 0 0 0 1.219 3.508 4.5 4.5 0 0 0 3.409 1.279 5.929 5.929 0 0 0 5.188-3.023" data-name="パス 3137"/><path d="M119.004.448v.528a2.56 2.56 0 0 0-1.784.89 9.194 9.194 0 0 0-1.426 2.8l-5.109 14.2h-.565l-4.954-13.412-4.817 13.409h-.516l-5.55-14.991a11.153 11.153 0 0 0-.828-1.838 2.222 2.222 0 0 0-.782-.827A3.288 3.288 0 0 0 91.2.975V.448h6.743v.528c-1.071.124-1.6.516-1.6 1.176a2.969 2.969 0 0 0 .232 1.02l4.251 11.54 3.858-10.565-.4-1.176a3.421 3.421 0 0 0-.943-1.549 2.5 2.5 0 0 0-1.592-.448V.448h6.644v.528c-1.172 0-1.763.36-1.763 1.085a3.576 3.576 0 0 0 .25 1.149l4.247 11.502 3.728-10.17a6.113 6.113 0 0 0 .451-2.019c0-1.048-.605-1.576-1.816-1.576v-.5Z" data-name="パス 3138"/><path d="M127.255 18.62v-.528c1.044 0 1.563-.362 1.563-1.086a2.053 2.053 0 0 0-.139-.7l-1.689-5.045h-5.833l-1.239 3.65a7.153 7.153 0 0 0-.464 2.005c0 .764.479 1.155 1.431 1.176v.528h-4.69v-.528a2.777 2.777 0 0 0 1.568-.665 5.827 5.827 0 0 0 1.132-2.19L123.921.252h1.866l5.277 15.65a3.964 3.964 0 0 0 .969 1.78 2.578 2.578 0 0 0 1.62.406v.528Zm-5.759-8.475h5.124l-2.578-7.7Z" data-name="パス 3139"/><path d="M148.5.976V.448h5.484v.528a2.266 2.266 0 0 0-1.826.621 3.625 3.625 0 0 0-.514 2.249v14.773h-.556l-12.874-15.8V15.58a2.771 2.771 0 0 0 .552 1.934 2.44 2.44 0 0 0 1.836.577v.528h-5.515v-.527a1.976 1.976 0 0 0 1.779-.692 4.554 4.554 0 0 0 .467-2.424V4.342a3.878 3.878 0 0 0-.627-2.474 2.963 2.963 0 0 0-2.068-.892V.448h4.663l11.414 14.143V3.968a4.232 4.232 0 0 0-.475-2.333 2.011 2.011 0 0 0-1.745-.659" data-name="パス 3140"/><path d="M0 18.526v-.528a1.2 1.2 0 0 0 1.253-.646 4.138 4.138 0 0 0 .447-2.247V3.758a4.165 4.165 0 0 0-.449-2.264A1.2 1.2 0 0 0 0 .853V.331h8.053a10.4 10.4 0 0 1 7.459 2.649 8.888 8.888 0 0 1 2.8 6.748 8.193 8.193 0 0 1-2.656 6.405q-2.648 2.39-7.374 2.392Zm7.562-17.5H4.106v13.431a5.251 5.251 0 0 0 .463 2.655 2.072 2.072 0 0 0 1.86.713h1.878a6.712 6.712 0 0 0 5.275-2.161 8.585 8.585 0 0 0 1.922-5.9A9.235 9.235 0 0 0 13.4 3.412a7.376 7.376 0 0 0-5.838-2.38" data-name="パス 3141"/><path d="M32.129 15.776a1.455 1.455 0 0 1 1.462 1.46 1.443 1.443 0 0 1-.434 1.048 1.4 1.4 0 0 1-1.027.442 1.513 1.513 0 0 1-1.492-1.49 1.39 1.39 0 0 1 .444-1.029 1.445 1.445 0 0 1 1.048-.431" data-name="パス 3142"/><path d="M24.81 8.271v2.386a8.019 8.019 0 0 1 1.8-1.856 3.3 3.3 0 0 1 1.652-.564 2.7 2.7 0 0 1 1.8.492 1.511 1.511 0 0 1 .358 2.129 1.274 1.274 0 0 1-1.758.17 2.716 2.716 0 0 0-2.076-.9c-.626.034-1.039.461-1.771 1.336v4.918a1.569 1.569 0 0 0 .384 1.233c.253.214.38.319 1.1.319v.518h-5.111v-.518c.769 0 .916-.12 1.152-.363a2.777 2.777 0 0 0 .36-1.759v-4.877a2.01 2.01 0 0 0-.388-1.479c-.26-.223-.532-.335-1.537-.335v-.516Z" data-name="パス 3143"/></g></svg>