<svg xmlns="http://www.w3.org/2000/svg" xml:space="preserve" width="27" height="27" style="enable-background:new 0 0 27 27"><path d="M26.7 13.5c0 1.8-.3 3.6-1 5.3-1.3 3.2-3.8 5.7-7 7-3.4 1.3-7.1 1.3-10.5 0-3.2-1.3-5.7-3.8-7-7-.7-1.7-1-3.5-1-5.3 0-1.8.3-3.6 1-5.3 1.3-3.2 3.8-5.7 7-7 3.4-1.3 7.1-1.3 10.5 0 3.2 1.3 5.7 3.8 7 7 .7 1.7 1 3.5 1 5.3m-2.8 0c0-1.4-.2-2.8-.7-4.2-.5-1.3-1.2-2.5-2.1-3.5-.9-1-2-1.8-3.3-2.4-2.8-1.2-5.9-1.2-8.7 0-1.2.6-2.3 1.4-3.2 2.4C5 6.9 4.3 8 3.8 9.3c-1 2.7-1 5.6 0 8.3.5 1.4 1.2 2.5 2.1 3.6.9 1 2 1.8 3.3 2.4 2.8 1.2 5.9 1.2 8.7 0 1.2-.6 2.4-1.4 3.3-2.4.9-1 1.6-2.2 2.1-3.5.4-1.4.6-2.8.6-4.2" style="fill:#595757"/></svg>