<svg xmlns="http://www.w3.org/2000/svg" xml:space="preserve" width="27" height="27" style="enable-background:new 0 0 27 27"><path d="M26.9 26.1H12.6c-1.7 0-3.4-.3-5-.9-1.5-.6-2.8-1.5-4-2.6-1.1-1.2-2-2.5-2.6-4-.6-1.6-1-3.4-.9-5.1 0-1.7.3-3.5.9-5.1.6-1.5 1.5-2.9 2.6-4s2.5-2 4-2.6c3.2-1.3 6.7-1.3 9.9 0 1.5.6 2.8 1.5 4 2.6 1.1 1.2 2 2.5 2.6 4 .6 1.6 1 3.3.9 5.1 0 2.1-.4 4.2-1.4 6-1 1.9-2.5 3.4-4.4 4.3v.1h7.5l.2 2.2zM2.8 13.4c0 1.3.2 2.7.7 3.9.4 1.2 1.1 2.3 1.9 3.3.9 1 1.9 1.7 3.1 2.3 2.6 1.1 5.6 1.1 8.2 0 1.2-.5 2.2-1.3 3.1-2.3.8-1 1.5-2.1 1.9-3.3.9-2.6.9-5.3 0-7.9-.4-1.2-1.1-2.3-1.9-3.3-.9-1-1.9-1.8-3.1-2.3a10.6 10.6 0 0 0-8.2 0c-1.2.5-2.2 1.3-3.1 2.3-.8 1-1.5 2.1-1.9 3.3-.4 1.3-.7 2.7-.7 4" style="fill:#595757"/></svg>