<svg xmlns="http://www.w3.org/2000/svg" xml:space="preserve" width="17" height="27" style="enable-background:new 0 0 17 27"><path d="M13.9 4.9c-1.1-1.6-3-2.6-4.9-2.5-.6 0-1.3.1-1.9.3s-1.3.5-1.8.9-.9.8-1.2 1.4c-.3.6-.5 1.3-.4 2-.1 1.1.3 2 1 2.7s1.5 1.2 2.4 1.5c1 .4 2 .8 3.2 1.1s2.1.7 3.2 1.3c.9.5 1.7 1.2 2.4 2.1.7 1 1 2.4.9 3.6 0 1.1-.2 2.1-.7 3.1-.5.9-1.1 1.6-1.9 2.4-.8.6-1.7 1.1-2.7 1.4-.9.3-1.9.5-3 .5-1.5 0-3.1-.3-4.4-.9-1.5-.6-2.8-1.6-3.7-2.9l2.4-1.6c.5 1 1.2 1.7 2.2 2.2 1 .6 2.2.9 3.5.8.6 0 1.3-.1 1.9-.3.6-.2 1.2-.5 1.7-.9s.9-.9 1.2-1.4c.3-.6.5-1.3.5-1.9 0-.8-.2-1.5-.5-2.2-.4-.6-.9-1.1-1.4-1.4-.6-.4-1.3-.7-2-1-.9-.2-1.7-.4-2.6-.7s-1.6-.5-2.5-.9c-.7-.3-1.4-.7-2-1.2s-1.1-1.2-1.4-1.9C1 9.3.8 8.3.8 7.4c0-1.1.2-2.1.7-3.2.4-.9 1.1-1.6 1.8-2.2C4.2 1.3 5 .9 6 .6s2-.4 3-.4c1.3 0 2.7.2 3.9.7s2.4 1.3 3.3 2.4l-2.3 1.6z" style="fill:#595757"/></svg>