<svg xmlns="http://www.w3.org/2000/svg" width="17.459" height="20"><path fill="#595757" d="M16.3 4.54a4.652 4.652 0 0 1-.888-.325c-.053-.026-.109-.05-.161-.078-.07-.038-.137-.08-.2-.121s-.115-.067-.171-.1-.125-.089-.187-.134-.112-.081-.165-.124-.114-.1-.17-.147-.105-.093-.156-.141-.1-.106-.155-.16-.1-.1-.143-.157-.094-.114-.139-.172A4.665 4.665 0 0 1 12.769 0H9.251v13.616a2.866 2.866 0 0 1-2.866 2.867c-.088 0-.175-.005-.261-.013l-.064-.006a3.367 3.367 0 0 1-.251-.038h-.012a2.653 2.653 0 0 1-.233-.06l-.064-.023a3 3 0 0 1-.23-.084l-.023-.011a1.865 1.865 0 0 1-.2-.1l-.06-.032a2.484 2.484 0 0 1-.2-.123l-.032-.023a3.319 3.319 0 0 1-.164-.122l-.056-.046a2.262 2.262 0 0 1-.17-.155l-.036-.038q-.067-.069-.129-.141l-.049-.059a2.407 2.407 0 0 1-.136-.183l-.032-.05a2.864 2.864 0 0 1 2.4-4.431 3.2 3.2 0 0 1 .9.129V7.295a6.445 6.445 0 0 0-.9-.063h-.178c-.07 0-.14 0-.209.008l-.114.009c-.07.005-.139.011-.208.019l-.111.014c-.069.009-.138.018-.206.029l-.108.019a5.072 5.072 0 0 0-.2.039l-.108.031c-.067.016-.135.031-.2.049l-.1.029-.2.059-.1.034a6.291 6.291 0 0 0-.193.068l-.1.039c-.063.025-.127.05-.189.077l-.1.044c-.062.028-.123.055-.184.085l-.1.049c-.059.03-.119.061-.177.093l-.094.054c-.057.033-.115.066-.171.1l-.091.058a5.837 5.837 0 0 0-.165.108l-.091.065c-.052.037-.105.074-.156.113l-.09.07c-.05.039-.1.078-.149.119l-.087.076c-.048.041-.1.082-.142.125l-.085.082c-.045.043-.09.085-.134.129s-.056.059-.084.088l-.125.133c-.041.045-.054.063-.081.094s-.079.09-.117.137l-.079.1a3.598 3.598 0 0 0-.185.247c-.025.036-.068.094-.1.142s-.048.076-.072.113-.062.1-.092.145-.046.081-.069.121l-.083.146c-.027.046-.043.084-.065.127l-.075.147c-.024.047-.04.089-.061.134l-.066.148c-.021.048-.038.095-.056.142l-.057.146c-.018.046-.034.1-.051.15l-.049.146c-.015.046-.029.1-.044.155s-.029.1-.041.147-.025.11-.038.165-.023.094-.033.142-.022.119-.032.178l-.024.135c-.01.064-.017.128-.025.192-.005.042-.012.084-.016.126-.007.072-.012.146-.017.219 0 .035-.006.069-.008.1q.002.161.002.326c0 .172.009.341.022.509 0 .027 0 .055.006.082q.022.24.062.475c0 .029.01.059.016.088.029.159.063.316.1.47 0 .015.008.029.012.044q.062.23.14.452l.014.043c.054.151.115.3.18.444l.031.069q.1.215.214.422l.029.05a6.389 6.389 0 0 0 .548.813l.026.023a6.383 6.383 0 0 0 11.366-3.991v-7.2a7.4 7.4 0 0 0 4.691 1.669V4.691a4.682 4.682 0 0 1-1.16-.15"/></svg>