<svg xmlns="http://www.w3.org/2000/svg" xml:space="preserve" width="19" height="27" style="enable-background:new 0 0 19 27"><path d="M18.9 16.4c0 1.1-.1 2.2-.4 3.4-.2 1.1-.7 2.2-1.4 3.3-.7 1-1.7 1.9-2.9 2.5-3 1.3-6.3 1.3-9.3 0-1.1-.6-2-1.4-2.9-2.5-.7-1-1.1-2.1-1.4-3.3-.2-1.1-.4-2.2-.4-3.4V.4h2.6V16c0 1 .1 2.1.3 3.2.2.8.5 1.5.9 2.2.3.5.8 1 1.3 1.4.4.3.9.6 1.4.8.4.2.9.3 1.4.4.4.1.8.1 1.2.1.4 0 .8 0 1.1-.1.5-.1 1-.2 1.4-.4.5-.2 1-.5 1.4-.8.5-.4 1-.8 1.3-1.4.4-.7.7-1.4.9-2.2.3-1 .4-2 .3-3.2V.5h2.6l.6 15.9z" style="fill:#595757"/></svg>